<?xml version="1.0" encoding="UTF-8" standalone="no"?>
<!-- Created with Inkscape (http://www.inkscape.org/) -->

<svg
   xmlns:dc="http://purl.org/dc/elements/1.1/"
   xmlns:cc="http://creativecommons.org/ns#"
   xmlns:rdf="http://www.w3.org/1999/02/22-rdf-syntax-ns#"
   xmlns:svg="http://www.w3.org/2000/svg"
   xmlns="http://www.w3.org/2000/svg"
   xmlns:sodipodi="http://sodipodi.sourceforge.net/DTD/sodipodi-0.dtd"
   xmlns:inkscape="http://www.inkscape.org/namespaces/inkscape"
   width="9.1380091mm"
   height="12.636032mm"
   viewBox="0 0 9.1380091 12.636032"
   version="1.1"
   id="svg4755"
   inkscape:version="0.92.2 (5c3e80d, 2017-08-06)"
   sodipodi:docname="tel.svg">
  <defs
     id="defs4749" />
  <sodipodi:namedview
     id="base"
     pagecolor="#ffffff"
     bordercolor="#666666"
     borderopacity="1.0"
     inkscape:pageopacity="0.0"
     inkscape:pageshadow="2"
     inkscape:zoom="1.979899"
     inkscape:cx="-5.4913602"
     inkscape:cy="82.532273"
     inkscape:document-units="mm"
     inkscape:current-layer="layer1"
     showgrid="false"
     fit-margin-top="0"
     fit-margin-left="0"
     fit-margin-right="0"
     fit-margin-bottom="0"
     inkscape:window-width="1373"
     inkscape:window-height="845"
     inkscape:window-x="67"
     inkscape:window-y="27"
     inkscape:window-maximized="1" />
  <metadata
     id="metadata4752">
    <rdf:RDF>
      <cc:Work
         rdf:about="">
        <dc:format>image/svg+xml</dc:format>
        <dc:type
           rdf:resource="http://purl.org/dc/dcmitype/StillImage" />
        <dc:title />
      </cc:Work>
    </rdf:RDF>
  </metadata>
  <g
     inkscape:label="Livello 1"
     inkscape:groupmode="layer"
     id="layer1"
     transform="translate(-134.52624,-95.646245)">
    <path
       id="path2014-9-4"
       d="m 143.66167,106.93588 a 0.50659914,0.50659914 0 0 1 -0.31956,0.3764 l -2.06445,0.87818 a 0.92490544,0.92490544 0 0 1 -0.3391,0.087 1.2614319,1.2614319 0 0 1 -0.36693,-0.0216 l -0.07,-0.019 q -0.0599,-0.0153 -0.15311,-0.0491 a 5.7947706,5.7947706 0 0 1 -1.77553,-1.11397 11.043861,11.043861 0 0 1 -1.32247,-1.41689 q -0.70683,-0.88178 -1.38199,-2.21839 a 12.971111,12.971111 0 0 1 -0.83105,-1.92211 10.801419,10.801419 0 0 1 -0.40354,-1.577925 7.0149508,7.0149508 0 0 1 -0.1077,-1.231211 5.6362783,5.6362783 0 0 1 0.0733,-0.89682 2.6820807,2.6820807 0 0 1 0.14788,-0.555191 q 0.0823,-0.191904 0.0899,-0.212988 a 1.0718191,1.0718191 0 0 1 0.21808,-0.269903 0.86845577,0.86845577 0 0 1 0.28949,-0.184143 l 2.06567,-0.890066 a 0.56304876,0.56304876 0 0 1 0.42739,-0.01843 0.48271663,0.48271663 0 0 1 0.23945,0.178662 0.82720415,0.82720415 0 0 1 0.12379,0.275429 l 0.44816,2.653359 a 0.53120549,0.53120549 0 0 1 -0.08,0.401213 0.70706774,0.70706774 0 0 1 -0.32287,0.276698 l -0.76201,0.327641 a 0.18961283,0.18961283 0 0 0 -0.0654,0.05336 0.26922129,0.26922129 0 0 0 -0.0472,0.07528 2.0039617,2.0039617 0 0 0 0.024,0.601095 5.0573075,5.0573075 0 0 0 0.20076,0.79168 7.6995848,7.6995848 0 0 0 0.51415,1.16238 8.0382827,8.0382827 0 0 0 0.65042,1.11301 5.7781256,5.7781256 0 0 0 0.53352,0.65393 2.0025144,2.0025144 0 0 0 0.35855,0.30704 l 0.13526,0.0794 a 0.31192033,0.31192033 0 0 0 0.0815,0.0109 0.21060051,0.21060051 0 0 0 0.0893,-0.0109 l 0.89061,-0.39201 a 0.78812356,0.78812356 0 0 1 0.551,0.003 0.68246149,0.68246149 0 0 1 0.28931,0.18125 l 0.0116,0.005 1.79976,2.04978 a 0.58693137,0.58693137 0 0 1 0.16003,0.46079 z"
       inkscape:connector-curvature="0"
       style="fill:#ec3a3f;fill-opacity:0.94117647;stroke-width:0.07237133"
       inkscape:export-xdpi="66.709999"
       inkscape:export-ydpi="66.709999" />
  </g>
</svg>
